<svg width="500" height="500" viewBox="0 0 500 500" fill="none" xmlns="http://www.w3.org/2000/svg">
<rect x="21" y="142" width="457" height="216" rx="25" fill="black"/>
<path d="M105.62 329.42C95.06 329.42 85.82 327.587 77.9 323.92C70.1267 320.107 63.9667 314.827 59.42 308.08C55.02 301.187 52.5267 293.12 51.94 283.88H79.44C80.0267 290.773 82.6667 296.273 87.36 300.38C92.2 304.34 98.2867 306.32 105.62 306.32C111.78 306.32 117.06 305 121.46 302.36C125.86 299.72 129.233 295.907 131.58 290.92C134.073 285.933 135.32 280.067 135.32 273.32C135.32 264.813 132.827 257.92 127.84 252.64C122.853 247.213 116.253 244.5 108.04 244.5C102.027 244.5 96.4533 246.04 91.32 249.12C86.1867 252.053 82.1533 255.72 79.22 260.12H53.7L66.9 173.44H155.56V196.54H89.56L83.18 235.04C87.2867 230.787 92.1267 227.413 97.7 224.92C103.42 222.427 109.36 221.18 115.52 221.18C124.907 221.18 133.193 223.38 140.38 227.78C147.713 232.033 153.433 238.047 157.54 245.82C161.793 253.447 163.92 262.467 163.92 272.88C163.92 284.467 161.5 294.513 156.66 303.02C151.82 311.527 145 318.053 136.2 322.6C127.4 327.147 117.207 329.42 105.62 329.42ZM244.746 327V237.24L246.286 205.56L220.986 226.02L193.926 247.58V215.68L252.226 173.44H272.466V327H244.746ZM193.926 327V303.9H307.006V327H193.926ZM403.232 327V291.36H328.872V272L393.332 173.44H431.612V268.26H456.912V291.36H431.612V327H403.232ZM357.472 268.26H403.232V227.56L403.672 195.44L386.952 223.16L357.472 268.26Z" fill="white"/>
</svg>
